<?xml version="1.0" encoding="UTF-8" standalone="no"?>
<!-- Created with Inkscape (http://www.inkscape.org/) -->

<svg
   xmlns:dc="http://purl.org/dc/elements/1.1/"
   xmlns:cc="http://creativecommons.org/ns#"
   xmlns:rdf="http://www.w3.org/1999/02/22-rdf-syntax-ns#"
   xmlns:svg="http://www.w3.org/2000/svg"
   xmlns="http://www.w3.org/2000/svg"
   xmlns:sodipodi="http://sodipodi.sourceforge.net/DTD/sodipodi-0.dtd"
   xmlns:inkscape="http://www.inkscape.org/namespaces/inkscape"
   width="352mm"
   height="91mm"
   viewBox="0 0 1247.2437 322.44075"
   id="svg4573"
   version="1.1"
   inkscape:version="0.92.3 (2405546, 2018-03-11)"
   inkscape:export-filename="/home/leo/Documents/DaliLabs/Pack Comm/PAF-StarterPack/Bandeaux/PAF-carre-marron-ombre-catchphrase.png"
   inkscape:export-xdpi="262"
   inkscape:export-ydpi="262"
   sodipodi:docname="temBoard-bandeau-minuscule.svg">
  <defs
     id="defs4575">
    <filter
       style="color-interpolation-filters:sRGB"
       inkscape:label="Drop Shadow"
       id="filter4309">
      <feFlood
         flood-opacity="0.67451"
         flood-color="rgb(67,67,67)"
         result="flood"
         id="feFlood4311" />
      <feComposite
         in="flood"
         in2="SourceGraphic"
         operator="in"
         result="composite1"
         id="feComposite4313" />
      <feGaussianBlur
         in="composite1"
         stdDeviation="1.4"
         result="blur"
         id="feGaussianBlur4315" />
      <feOffset
         dx="1.3"
         dy="1.3"
         result="offset"
         id="feOffset4317" />
      <feComposite
         in="SourceGraphic"
         in2="offset"
         operator="over"
         result="composite2"
         id="feComposite4319" />
    </filter>
    <filter
       style="color-interpolation-filters:sRGB"
       inkscape:label="Drop Shadow"
       id="filter4522">
      <feFlood
         flood-opacity="0.67451"
         flood-color="rgb(67,67,67)"
         result="flood"
         id="feFlood4524" />
      <feComposite
         in="flood"
         in2="SourceGraphic"
         operator="in"
         result="composite1"
         id="feComposite4526" />
      <feGaussianBlur
         in="composite1"
         stdDeviation="1.4"
         result="blur"
         id="feGaussianBlur4528" />
      <feOffset
         dx="1.3"
         dy="1.3"
         result="offset"
         id="feOffset4530" />
      <feComposite
         in="SourceGraphic"
         in2="offset"
         operator="over"
         result="composite2"
         id="feComposite4532" />
    </filter>
    <filter
       style="color-interpolation-filters:sRGB"
       inkscape:label="Drop Shadow"
       id="filter4534">
      <feFlood
         flood-opacity="0.67451"
         flood-color="rgb(67,67,67)"
         result="flood"
         id="feFlood4536" />
      <feComposite
         in="flood"
         in2="SourceGraphic"
         operator="in"
         result="composite1"
         id="feComposite4538" />
      <feGaussianBlur
         in="composite1"
         stdDeviation="1.4"
         result="blur"
         id="feGaussianBlur4540" />
      <feOffset
         dx="1.3"
         dy="1.3"
         result="offset"
         id="feOffset4542" />
      <feComposite
         in="SourceGraphic"
         in2="offset"
         operator="over"
         result="composite2"
         id="feComposite4544" />
    </filter>
    <filter
       style="color-interpolation-filters:sRGB"
       inkscape:label="Drop Shadow"
       id="filter4546">
      <feFlood
         flood-opacity="0.67451"
         flood-color="rgb(67,67,67)"
         result="flood"
         id="feFlood4548" />
      <feComposite
         in="flood"
         in2="SourceGraphic"
         operator="in"
         result="composite1"
         id="feComposite4550" />
      <feGaussianBlur
         in="composite1"
         stdDeviation="1.4"
         result="blur"
         id="feGaussianBlur4552" />
      <feOffset
         dx="1.3"
         dy="1.3"
         result="offset"
         id="feOffset4554" />
      <feComposite
         in="SourceGraphic"
         in2="offset"
         operator="over"
         result="composite2"
         id="feComposite4556" />
    </filter>
    <filter
       style="color-interpolation-filters:sRGB"
       inkscape:label="Drop Shadow"
       id="filter5209">
      <feFlood
         flood-opacity="0.67451"
         flood-color="rgb(67,67,67)"
         result="flood"
         id="feFlood5211" />
      <feComposite
         in="flood"
         in2="SourceGraphic"
         operator="in"
         result="composite1"
         id="feComposite5213" />
      <feGaussianBlur
         in="composite1"
         stdDeviation="1.4"
         result="blur"
         id="feGaussianBlur5215" />
      <feOffset
         dx="1.3"
         dy="1.3"
         result="offset"
         id="feOffset5217" />
      <feComposite
         in="SourceGraphic"
         in2="offset"
         operator="over"
         result="composite2"
         id="feComposite5219" />
    </filter>
  </defs>
  <sodipodi:namedview
     id="base"
     pagecolor="#ffffff"
     bordercolor="#666666"
     borderopacity="1.0"
     inkscape:pageopacity="0.0"
     inkscape:pageshadow="2"
     inkscape:zoom="0.5"
     inkscape:cx="776.411"
     inkscape:cy="-146.48358"
     inkscape:document-units="px"
     inkscape:current-layer="layer1"
     showgrid="false"
     inkscape:window-width="1920"
     inkscape:window-height="1055"
     inkscape:window-x="1920"
     inkscape:window-y="0"
     inkscape:window-maximized="1"
     inkscape:snap-global="false" />
  <metadata
     id="metadata4578">
    <rdf:RDF>
      <cc:Work
         rdf:about="">
        <dc:format>image/svg+xml</dc:format>
        <dc:type
           rdf:resource="http://purl.org/dc/dcmitype/StillImage" />
        <dc:title></dc:title>
      </cc:Work>
    </rdf:RDF>
  </metadata>
  <g
     inkscape:label="Calque 1"
     inkscape:groupmode="layer"
     id="layer1"
     transform="translate(0,-729.92161)">
    <g
       id="g4591"
       transform="matrix(1.6704296,0,0,1.6704296,-248.90408,-700.1329)"
       style="fill:#d65a16;fill-opacity:1" />
    <g
       id="g4811"
       transform="matrix(1.0927371,0,0,1.0927371,-53.151232,-81.17472)">
      <path
         inkscape:connector-curvature="0"
         class="st0"
         d="m 380.09423,914.77697 v 15.93749 h 18.46874 v 12.84374 h -18.46874 v 23.81249 c 0,2.625 0.5625,4.40625 1.59375,5.25 1.03125,0.9375 3.09375,1.40625 6.1875,1.40625 h 9.18749 v 12.84374 h -15.37499 c -7.03125,0 -12.09375,-1.5 -15.09374,-4.40624 -3,-3 -4.40625,-7.96875 -4.40625,-15.09375 V 943.5582 h -8.90625 v -12.84374 h 8.90625 v -15.93749 z"
         id="path4"
         style="fill:#d65a16;fill-opacity:1;stroke-width:0.93749958"
         transform="matrix(1.6704296,0,0,1.6704296,-248.90408,-700.13289)" />
      <path
         inkscape:connector-curvature="0"
         class="st0"
         d="m 442.06295,952.65195 c 0,-3.375 -1.03125,-6.1875 -3,-8.25 -1.96875,-2.0625 -4.59374,-3.09375 -7.78124,-3.09375 -3.46875,0 -6.28125,0.9375 -8.4375,2.90625 -2.15625,1.96875 -3.5625,4.78125 -4.03125,8.4375 z m 18.46874,5.90625 v 5.15624 h -41.99998 c 0.46875,4.21875 1.96875,7.40625 4.59375,9.46875 2.625,2.15625 6.28125,3.1875 10.96875,3.1875 3.74999,0 7.68749,-0.5625 11.62499,-1.6875 3.9375,-1.125 8.0625,-2.8125 12.18749,-5.0625 v 13.875 c -4.21874,1.59374 -8.53124,2.81249 -12.74999,3.65624 -4.21875,0.84375 -8.53125,1.21875 -12.74999,1.21875 -10.125,0 -18.09375,-2.625 -23.71874,-7.78124 -5.625,-5.15625 -8.4375,-12.375 -8.4375,-21.74999 0,-9.1875 2.71875,-16.40625 8.25,-21.65624 5.53124,-5.25 13.12499,-7.875 22.87499,-7.875 8.81249,0 15.84374,2.625 21.18749,7.96875 5.34374,5.34374 7.96874,12.46874 7.96874,21.28124"
         id="path6"
         style="fill:#d65a16;fill-opacity:1;stroke-width:0.93749958"
         transform="matrix(1.6704296,0,0,1.6704296,-248.90408,-700.13289)" />
      <path
         inkscape:connector-curvature="0"
         class="st0"
         d="m 516.87541,939.99571 c 2.25,-3.46875 4.96874,-6.09375 8.06249,-7.96875 3.09375,-1.78125 6.5625,-2.71875 10.3125,-2.71875 6.46875,0 11.34374,1.96875 14.71874,6 3.375,3.9375 5.0625,9.74999 5.0625,17.34374 v 34.21873 H 537.03165 V 957.6207 c 0,-0.46875 0.0937,-0.84375 0.0937,-1.3125 0,-0.46875 0,-1.125 0,-1.96875 0,-3.9375 -0.5625,-6.84375 -1.78125,-8.625 -1.21875,-1.78125 -3.09375,-2.71875 -5.625,-2.71875 -3.375,0 -6,1.40625 -7.875,4.21875 -1.87499,2.8125 -2.81249,6.84375 -2.90624,12.1875 v 27.56248 h -18 v -29.24998 c 0,-6.1875 -0.5625,-10.21875 -1.59374,-12 -1.03125,-1.78125 -3,-2.71875 -5.71875,-2.71875 -3.46875,0 -6.09375,1.40625 -7.96875,4.21875 -1.875,2.8125 -2.8125,6.84375 -2.8125,12.09375 v 27.65623 h -17.99999 v -56.15622 h 17.99999 v 8.25 c 2.15625,-3.1875 4.78125,-5.53125 7.59375,-7.125 2.8125,-1.59375 6,-2.4375 9.46875,-2.4375 3.84374,0 7.31249,0.9375 10.31249,2.8125 2.90625,1.6875 5.15625,4.3125 6.65625,7.6875"
         id="path8"
         style="fill:#d65a16;fill-opacity:1;stroke-width:0.93749958"
         transform="matrix(1.6704296,0,0,1.6704296,-248.90408,-700.13289)" />
      <path
         inkscape:connector-curvature="0"
         class="st0"
         d="m 594.40159,973.74528 c 3.84375,0 6.75,-0.8438 8.71875,-2.4375 1.96875,-1.5939 2.90625,-4.1252 2.90625,-7.4065 0,-3.2813 -0.9375,-5.7189 -2.90625,-7.3127 -1.96875,-1.5938 -4.875,-2.4375 -8.8125,-2.4375 H 582.9641 v 19.5942 z m -0.65625,-32.7196 c 3,0 5.34375,-0.6563 6.9375,-1.9688 1.59375,-1.3125 2.34375,-3.2813 2.34375,-5.9064 0,-2.5313 -0.75,-4.5001 -2.34375,-5.9064 -1.59375,-1.3126 -3.84375,-2.0626 -6.9375,-2.0626 h -10.68749 v 15.8442 z m 18.56249,5.8127 c 4.125,1.2187 7.3125,3.4688 9.65625,6.6564 2.25,3.2813 3.375,7.2189 3.375,11.9066 0,7.2189 -2.4375,12.5628 -7.3125,16.1254 -4.875,3.5626 -12.28124,5.3439 -22.21874,5.3439 h -32.06248 v -74.8145 h 28.96873 c 10.40625,0 17.90624,1.5938 22.59374,4.6876 4.6875,3.0938 7.03125,8.1565 7.03125,15.0942 0,3.6563 -0.84375,6.7502 -2.53125,9.2815 -1.78125,2.625 -4.21875,4.5001 -7.5,5.7189"
         id="path10"
         style="fill:#d65a16;fill-opacity:1;stroke-width:0.93749958"
         transform="matrix(1.6704296,0,0,1.6704296,-248.90408,-700.13289)" />
      <path
         inkscape:connector-curvature="0"
         class="st0"
         d="m 660.40662,942.15195 c -3.9375,0 -7.03125,1.40625 -9.09374,4.3125 -2.0625,2.8125 -3.09375,6.9375 -3.09375,12.375 0,5.34374 1.03125,9.46874 3.09375,12.37499 2.06249,2.8125 5.15624,4.3125 9.09374,4.3125 3.9375,0 6.9375,-1.40625 9,-4.3125 2.0625,-2.90625 3.09375,-6.9375 3.09375,-12.37499 0,-5.34375 -1.03125,-9.46875 -3.09375,-12.375 -2.15625,-2.90625 -5.15625,-4.3125 -9,-4.3125 m 0,-12.84374 c 9.65625,0 17.24999,2.625 22.59374,7.78125 5.4375,5.24999 8.15625,12.46874 8.15625,21.65624 0,9.18749 -2.71875,16.40624 -8.15625,21.65624 -5.4375,5.24999 -12.93749,7.78124 -22.59374,7.78124 -9.65624,0 -17.24999,-2.625 -22.68749,-7.78124 -5.4375,-5.15625 -8.15624,-12.46875 -8.15624,-21.65624 0,-9.1875 2.71874,-16.40625 8.15624,-21.65624 5.34375,-5.15625 12.9375,-7.78125 22.68749,-7.78125"
         id="path12"
         style="fill:#d65a16;fill-opacity:1;stroke-width:0.93749958"
         transform="matrix(1.6704296,0,0,1.6704296,-248.90408,-700.13289)" />
      <path
         inkscape:connector-curvature="0"
         class="st0"
         d="m 724.25032,961.5582 c -3.75,0 -6.56249,0.65625 -8.43749,1.87499 -1.875,1.3125 -2.8125,3.1875 -2.8125,5.625 0,2.25 0.75,4.03125 2.25,5.34375 1.5,1.3125 3.65624,1.96875 6.37499,1.96875 3.375,0 6.1875,-1.21875 8.53125,-3.65625 2.34375,-2.4375 3.46875,-5.4375 3.46875,-9.09375 v -2.06249 z m 27.37499,-6.75 v 32.06248 h -18.09374 v -8.34374 c -2.4375,3.375 -5.15625,5.90624 -8.15625,7.40624 -3,1.59375 -6.65625,2.34375 -10.96874,2.34375 -5.8125,0 -10.5,-1.6875 -14.15625,-5.06249 -3.65625,-3.375 -5.43749,-7.78125 -5.43749,-13.21875 0,-6.5625 2.24999,-11.43749 6.74999,-14.53124 4.5,-3.09375 11.625,-4.59375 21.37499,-4.59375 h 10.59375 v -1.40625 c 0,-2.8125 -1.125,-4.875 -3.375,-6.28125 -2.25,-1.3125 -5.71875,-1.96875 -10.5,-1.96875 -3.84374,0 -7.40624,0.375 -10.68749,1.125 -3.28125,0.75 -6.375,1.875 -9.1875,3.46875 v -13.68749 c 3.84375,-0.9375 7.6875,-1.6875 11.625,-2.15625 3.84375,-0.46875 7.78124,-0.75 11.62499,-0.75 10.125,0 17.43749,1.96875 21.93749,6 4.40625,4.125 6.65625,10.59374 6.65625,19.59374"
         id="path14"
         style="fill:#d65a16;fill-opacity:1;stroke-width:0.93749958"
         transform="matrix(1.6704296,0,0,1.6704296,-248.90408,-700.13289)" />
      <path
         inkscape:connector-curvature="0"
         class="st0"
         d="m 798.68779,945.9957 c -1.59375,-0.75 -3.09375,-1.3125 -4.6875,-1.59375 -1.59375,-0.28125 -3.09375,-0.5625 -4.6875,-0.5625 -4.59375,0 -8.15624,1.5 -10.68749,4.40625 -2.53125,3 -3.75,7.21875 -3.75,12.75 v 25.87498 h -17.90624 v -56.15622 h 17.90624 v 9.1875 c 2.34375,-3.65625 4.96875,-6.375 7.96875,-8.0625 2.99999,-1.6875 6.56249,-2.53125 10.78124,-2.53125 0.5625,0 1.21875,0 1.96875,0.0937 0.65625,0.0937 1.6875,0.1875 3.09375,0.28125 z"
         id="path16"
         style="fill:#d65a16;fill-opacity:1;stroke-width:0.93749958"
         transform="matrix(1.6704296,0,0,1.6704296,-248.90408,-700.13289)" />
      <path
         inkscape:connector-curvature="0"
         class="st0"
         d="m 828.87527,975.24569 c 3.84375,0 6.75,-1.40625 8.8125,-4.21875 2.0625,-2.8125 3,-6.84375 3,-12.18749 0,-5.34375 -1.03125,-9.46875 -3,-12.1875 -2.0625,-2.8125 -4.96875,-4.21875 -8.8125,-4.21875 -3.84374,0 -6.74999,1.40625 -8.71874,4.21875 -2.0625,2.8125 -3,6.84375 -3,12.1875 0,5.34374 1.03125,9.46874 3,12.18749 1.96875,2.8125 4.875,4.21875 8.71874,4.21875 m 11.8125,-36.37498 v -30.09374 h 17.99999 v 77.99996 h -17.99999 v -8.15624 c -2.4375,3.28125 -5.15625,5.71874 -8.15625,7.31249 -3,1.5 -6.37499,2.34375 -10.31249,2.34375 -6.9375,0 -12.5625,-2.71875 -17.06249,-8.24999 -4.40625,-5.53125 -6.65625,-12.5625 -6.65625,-21.18749 0,-8.625 2.25,-15.75 6.65625,-21.18749 4.40624,-5.53125 10.12499,-8.25 17.06249,-8.25 3.84375,0 7.31249,0.75 10.31249,2.34375 3,1.5 5.71875,3.84375 8.15625,7.125"
         id="path18"
         style="fill:#d65a16;fill-opacity:1;stroke-width:0.93749958"
         transform="matrix(1.6704296,0,0,1.6704296,-248.90408,-700.13289)" />
      <g
         style="fill:#d65a16;fill-opacity:1"
         transform="matrix(2.0438817,0,0,2.0438817,-1060.14,-789.24083)"
         id="g4597">
        <path
           inkscape:connector-curvature="0"
           class="st0"
           d="m 607.06288,890.77698 c -3,0 -5.90625,-0.75 -8.53125,-2.25 L 553.2504,862.37074 c -5.25,-3 -8.53125,-8.71875 -8.53125,-14.71874 v -52.31248 c 0,-6.09375 3.28125,-11.71874 8.53125,-14.71874 l 45.37498,-26.15624 c 5.15625,-3 11.90624,-3 17.06249,0 l 45.37498,26.15624 c 5.25,3 8.53125,8.71874 8.53125,14.71874 V 847.652 c 0,6.09374 -3.28125,11.71874 -8.53125,14.71874 l -45.37498,26.15624 c -2.71875,1.5 -5.625,2.25 -8.62499,2.25 m 0,-129.93744 c -1.40625,0 -2.8125,0.375 -4.125,1.125 l -45.37498,26.15623 c -2.53125,1.40625 -4.125,4.125 -4.125,7.03125 v 52.31248 c 0,2.90625 1.59375,5.625 4.125,7.03124 l 45.37498,26.15624 c 2.4375,1.40625 5.71875,1.40625 8.15624,0 l 45.37498,-26.15624 c 2.53125,-1.40624 4.125,-4.12499 4.125,-7.03124 v -52.31248 c 0,-2.90625 -1.59375,-5.625 -4.125,-7.03125 l -45.37498,-26.15623 c -1.21875,-0.75 -2.62499,-1.125 -4.03124,-1.125"
           id="path20"
           style="fill:#d65a16;fill-opacity:1;stroke-width:0.93749958" />
        <path
           inkscape:connector-curvature="0"
           class="st0"
           d="m 611.75037,816.15201 c -3.93749,-2.34375 -7.12499,-5.53125 -7.12499,-10.31249 0,-4.78125 2.625,-9.1875 11.62499,-15.65625 9,-6.46874 18.74999,-7.78124 18.74999,-7.78124 -34.21873,3 -42.37498,31.12498 -43.59373,34.21873 -1.125,3.09375 -0.0937,4.21875 0.9375,4.6875 1.03125,0.46875 7.59375,3.75 12.65625,9.1875 4.96874,5.53124 7.49999,16.12499 7.49999,21.46874 0,5.43749 -2.90625,14.62499 -9.84374,21.84374 -0.28125,0.375 -0.65625,0.5625 -0.9375,0.9375 l 1.5,0.84374 c 2.25,1.3125 5.15625,1.3125 7.40624,0 l 12.28125,-7.03124 c 2.625,-4.96875 4.96875,-12.09375 4.875,-22.78124 0,-16.49999 -12.09375,-27.28124 -16.03125,-29.62499"
           id="path22"
           style="fill:#d65a16;fill-opacity:1;stroke-width:0.93749958" />
        <path
           inkscape:connector-curvature="0"
           class="st0"
           d="m 604.34413,842.12075 c -2.25,-4.78125 -7.21875,-11.62499 -14.71875,-15.28124 -1.78125,-0.5625 -4.12499,-2.15625 -4.78124,1.78125 -0.65625,3.93749 -2.4375,15.65624 -3.1875,25.87498 -0.1875,2.8125 -0.375,5.71875 -0.46875,8.4375 l 16.59374,9.5625 c 1.5,-1.40625 2.90625,-3.09375 4.125,-5.0625 5.71875,-9.5625 4.6875,-20.53124 2.4375,-25.31249"
           id="path24"
           style="fill:#d65a16;fill-opacity:1;stroke-width:0.93749958" />
        <path
           inkscape:connector-curvature="0"
           class="st0"
           d="m 615.31287,784.74578 c -2.0625,0.75 -5.90625,2.71875 -13.21874,0.65625 -7.3125,-2.15625 -13.78125,0.5625 -18.56249,3.09374 -4.78125,2.53125 -7.40625,7.96875 -8.15625,12 -0.75,4.03125 -4.3125,7.125 -7.21875,8.15625 2.625,-0.75 7.875,1.03125 9.75,3.56249 1.875,2.53125 3.84375,4.125 6.375,5.71875 2.53125,1.59375 2.90624,-0.9375 3.37499,-2.53125 0.46875,-1.5 1.03125,-7.21874 11.25,-18.28124 0,0 0,0 -0.0937,0 -1.6875,0 -3.09375,-1.40625 -3.09375,-3.09375 0,-1.6875 1.40625,-3.09375 3.09375,-3.09375 1.6875,0 3,1.3125 3.09375,3 11.53124,-10.96874 24.84374,-11.62499 33.18748,-11.62499 0,0.1875 -9.56249,-1.40625 -19.78124,2.4375"
           id="path26"
           style="fill:#d65a16;fill-opacity:1;stroke-width:0.93749958" />
      </g>
    </g>
  </g>
</svg>
